<svg width="500" height="500" viewBox="0 0 500 500" fill="none" xmlns="http://www.w3.org/2000/svg">
<path d="M249.999 467.388C362.634 467.388 453.943 456.355 453.943 442.745C453.943 429.135 362.634 418.102 249.999 418.102C137.364 418.102 46.0547 429.135 46.0547 442.745C46.0547 456.355 137.364 467.388 249.999 467.388Z" fill="#02CCC0"/>
<path d="M478.541 404.132C478.541 407.359 475.925 409.975 472.698 409.975C469.471 409.975 466.855 407.359 466.855 404.132C466.855 400.905 469.471 398.289 472.698 398.289C475.925 398.289 478.541 400.905 478.541 404.132Z" fill="#FF7BB7"/>
<path d="M468.374 236.079C472.639 233.524 476.904 230.969 481.168 228.414C482.186 227.804 482.651 226.347 481.982 225.309C481.322 224.285 479.967 223.842 478.878 224.495C474.613 227.05 470.348 229.605 466.084 232.16C465.066 232.77 464.601 234.227 465.27 235.265C465.93 236.289 467.285 236.732 468.374 236.079Z" fill="#99E7FF"/>
<path d="M437.213 210.676C429.503 210.676 423.23 204.403 423.23 196.694C423.23 188.984 429.503 182.711 437.213 182.711C444.922 182.711 451.195 188.984 451.195 196.694C451.195 204.403 444.922 210.676 437.213 210.676ZM437.213 185.434C431.004 185.434 425.953 190.485 425.953 196.694C425.953 202.902 431.004 207.953 437.213 207.953C443.421 207.953 448.472 202.902 448.472 196.694C448.472 190.485 443.421 185.434 437.213 185.434Z" fill="#FF7BB7"/>
<path d="M51.2282 222.038C51.2282 225.394 48.5072 228.115 45.1512 228.115C41.7952 228.115 39.0742 225.394 39.0742 222.038C39.0742 218.682 41.7952 215.961 45.1512 215.961C48.5072 215.961 51.2282 218.682 51.2282 222.038Z" fill="#99E7FF"/>
<path d="M155.666 193.214C155.666 196.57 152.945 199.291 149.589 199.291C146.233 199.291 143.512 196.57 143.512 193.214C143.512 189.858 146.233 187.137 149.589 187.137C152.946 187.137 155.666 189.858 155.666 193.214Z" fill="#FFD4A1"/>
<path d="M42.2954 388.413C42.2954 391.64 39.6794 394.256 36.4524 394.256C33.2254 394.256 30.6094 391.64 30.6094 388.413C30.6094 385.186 33.2254 382.57 36.4524 382.57C39.6794 382.57 42.2954 385.186 42.2954 388.413Z" fill="#FFD4A1"/>
<path d="M53.7369 287.388C43.7069 287.388 35.5469 279.228 35.5469 269.198C35.5469 259.168 43.7069 251.008 53.7369 251.008C63.7659 251.008 71.9259 259.168 71.9259 269.198C71.9259 279.228 63.7659 287.388 53.7369 287.388ZM53.7369 253.732C45.2089 253.732 38.2699 260.67 38.2699 269.199C38.2699 277.728 45.2079 284.666 53.7369 284.666C62.2649 284.666 69.2029 277.728 69.2029 269.199C69.2029 260.67 62.2649 253.732 53.7369 253.732Z" fill="#FF7BB7"/>
<path d="M206.688 122.946C197.947 122.946 190.836 115.835 190.836 107.094C190.836 98.3532 197.947 91.2422 206.688 91.2422C215.429 91.2422 222.54 98.3532 222.54 107.094C222.54 115.835 215.429 122.946 206.688 122.946ZM206.688 93.9642C199.448 93.9642 193.558 99.8542 193.558 107.093C193.558 114.332 199.448 120.223 206.688 120.223C213.928 120.223 219.818 114.333 219.818 107.093C219.818 99.8532 213.928 93.9642 206.688 93.9642Z" fill="#FFD4A1"/>
<path d="M123.589 107.054C120.392 108.24 118.794 111.336 119.007 114.667C119.243 118.353 121.31 121.081 123.884 123.577C126.359 125.976 128.823 128.166 129.469 131.707C130.001 134.618 129.262 137.88 127.348 140.163C126.561 141.101 126.428 142.452 127.348 143.372C128.157 144.181 129.766 144.316 130.557 143.372C135.248 137.775 135.288 129.652 130.669 124.009C128.609 121.492 125.243 119.535 123.962 116.455C123.593 115.567 123.428 114.204 123.569 113.395C123.679 112.764 123.783 112.47 124.054 112.054C124.226 111.79 124.544 111.524 124.795 111.432C125.943 111.006 126.725 109.896 126.38 108.641C126.077 107.534 124.744 106.625 123.589 107.054Z" fill="#FF7BB7"/>
<path d="M457.188 256.553C459.66 256.755 460.359 259.919 460.274 261.879C460.128 265.24 458.637 268.408 458.769 271.81C458.987 277.409 463.914 282.107 469.565 281.886C471.814 281.798 471.825 278.291 469.565 278.379C467.289 278.468 465.136 277.428 463.712 275.65C461.924 273.417 462.131 270.682 462.7 268.035C463.382 264.864 464.414 261.427 463.335 258.217C462.401 255.437 460.177 253.292 457.187 253.047C456.242 252.97 455.434 253.908 455.434 254.8C455.435 255.813 456.241 256.475 457.188 256.553Z" fill="#FF7BB7"/>
<path d="M63.9747 71.0515C65.4677 74.4615 66.9607 77.8715 68.4537 81.2815C68.9317 82.3725 70.6107 82.7065 71.5577 82.0955C72.6887 81.3665 72.8827 80.1585 72.3717 78.9915C70.8787 75.5815 69.3857 72.1715 67.8927 68.7615C67.4147 67.6705 65.7357 67.3365 64.7887 67.9475C63.6577 68.6765 63.4637 69.8845 63.9747 71.0515Z" fill="#FFD4A1"/>
<path d="M328.541 64.8845C331.951 65.7375 335.362 66.5905 338.772 67.4435C339.922 67.7315 341.287 67.0725 341.563 65.8585C341.831 64.6825 341.21 63.3755 339.978 63.0675C336.568 62.2145 333.157 61.3615 329.747 60.5085C328.597 60.2205 327.232 60.8795 326.956 62.0935C326.689 63.2685 327.309 64.5765 328.541 64.8845Z" fill="#FF7BB7"/>
<path d="M175.872 242.155C177.364 240.023 178.856 237.892 180.348 235.76C180.67 235.301 180.72 234.534 180.577 234.011C180.432 233.485 180.025 232.914 179.534 232.655C179.007 232.377 178.369 232.237 177.785 232.426C177.197 232.616 176.784 232.962 176.429 233.469C174.937 235.601 173.445 237.732 171.953 239.864C171.632 240.323 171.581 241.09 171.724 241.612C171.869 242.138 172.276 242.709 172.767 242.968C173.294 243.246 173.932 243.386 174.515 243.197C175.104 243.007 175.517 242.662 175.872 242.155Z" fill="#FFD4A1"/>
<path d="M51.9984 155.268C52.1264 155.146 52.2574 155.029 52.3884 154.911C52.5664 154.75 52.1794 155.038 52.5114 154.811C52.8024 154.612 53.0984 154.423 53.4094 154.257C53.5954 154.158 53.7864 154.063 53.9794 153.98C53.7614 154.073 53.8674 154.027 54.0264 153.975C54.3624 153.865 54.6974 153.759 55.0424 153.681C55.2484 153.635 55.4574 153.593 55.6664 153.564C55.4314 153.597 55.4974 153.583 55.6934 153.573C56.0464 153.555 56.3964 153.54 56.7494 153.556C56.7934 153.558 57.4794 153.621 56.9864 153.556C57.1254 153.574 57.2644 153.601 57.4024 153.629C57.7834 153.706 58.1514 153.818 58.5194 153.942C58.8684 154.06 58.0674 153.71 58.6454 153.99C58.8004 154.065 58.9544 154.142 59.1044 154.225C59.4064 154.391 59.6954 154.577 59.9754 154.779C60.2724 154.994 59.6084 154.441 60.0834 154.873C60.2114 154.989 60.3404 155.103 60.4634 155.223C60.5874 155.343 60.7074 155.467 60.8234 155.594C60.8574 155.631 61.2174 156.043 61.0464 155.839C60.8864 155.647 61.2424 156.114 61.2384 156.108C61.3354 156.25 61.4284 156.396 61.5164 156.544C61.6044 156.692 61.6894 156.842 61.7694 156.995C61.7934 157.041 62.0334 157.537 61.9194 157.285C61.8054 157.034 62.0144 157.539 62.0314 157.59C62.0874 157.753 62.1384 157.917 62.1844 158.083C62.2854 158.45 62.3564 158.82 62.4084 159.196C62.5734 160.376 64.1384 161.124 65.1994 160.781C66.4934 160.362 66.9614 159.254 66.7844 157.99C66.2444 154.13 63.3364 150.874 59.7254 149.567C55.9904 148.214 51.6144 149.355 48.7884 152.059C47.9294 152.881 47.8994 154.451 48.7884 155.268C49.7114 156.114 51.0814 156.145 51.9984 155.268Z" fill="#99E7FF"/>
<path d="M331.668 149.624C330.212 155.103 333.944 161.433 339.586 162.534C340.747 162.76 342.091 162.206 342.377 160.949C342.633 159.826 342.038 158.401 340.792 158.158C340.527 158.106 340.265 158.045 340.007 157.965C339.879 157.925 339.754 157.877 339.626 157.836C339.221 157.705 340.085 158.063 339.674 157.861C339.232 157.644 338.806 157.413 338.403 157.127C338.33 157.075 338.258 157.023 338.187 156.969C338.27 157.032 338.353 157.095 338.435 157.158C338.405 157.091 338.185 156.947 338.129 156.897C337.928 156.718 337.737 156.529 337.554 156.332C337.462 156.233 337.373 156.132 337.286 156.029C337.232 155.965 336.975 155.648 337.21 155.943C337.453 156.248 337.153 155.857 337.108 155.791C337.031 155.68 336.957 155.567 336.885 155.453C336.754 155.243 336.631 155.028 336.517 154.808C336.455 154.688 336.4 154.565 336.339 154.444C336.123 154.011 336.52 154.945 336.357 154.49C336.183 154.003 336.027 153.517 335.93 153.008C335.91 152.902 335.907 152.781 335.874 152.678C336.063 153.269 335.911 152.961 335.894 152.75C335.873 152.484 335.865 152.216 335.872 151.949C335.875 151.815 335.882 151.682 335.893 151.549C335.897 151.504 335.901 151.46 335.905 151.416C335.933 151.17 335.922 151.238 335.874 151.62C335.967 151.386 335.978 151.075 336.044 150.83C336.349 149.684 335.661 148.313 334.459 148.039C333.269 147.768 331.994 148.396 331.668 149.624Z" fill="#99E7FF"/>
<path d="M448.538 142.232C448.619 142.328 448.7 142.424 448.779 142.523C448.488 142.158 448.758 142.513 448.814 142.594C448.973 142.826 449.121 143.066 449.258 143.312C449.38 143.531 449.49 143.755 449.597 143.981C449.85 144.512 449.522 143.723 449.622 144.044C449.659 144.163 449.709 144.279 449.749 144.397C449.933 144.937 450.033 145.483 450.162 146.036C450.238 146.365 450.13 145.655 450.16 145.992C450.174 146.149 450.193 146.305 450.204 146.461C450.224 146.743 450.233 147.026 450.231 147.309C450.23 147.561 450.219 147.812 450.201 148.063C450.189 148.22 450.171 148.376 450.156 148.532C450.174 148.337 450.206 148.234 450.156 148.488C450.048 149.044 449.923 149.59 449.739 150.126C449.698 150.244 449.654 150.361 449.611 150.479C449.464 150.884 449.711 150.305 449.584 150.541C449.466 150.761 449.366 150.99 449.244 151.209C449.107 151.455 448.959 151.694 448.8 151.927C448.767 151.975 448.454 152.388 448.643 152.152C448.832 151.916 448.459 152.361 448.461 152.359C447.684 153.255 447.514 154.699 448.461 155.568C449.314 156.351 450.84 156.526 451.67 155.568C455.736 150.877 455.752 143.753 451.746 139.024C450.976 138.115 449.319 138.172 448.537 139.024C447.65 139.99 447.717 141.262 448.538 142.232Z" fill="#99E7FF"/>
<path d="M210.449 37.5556C212.399 34.7446 216.222 33.1886 219.475 33.8676C222.915 34.5846 225.671 37.2566 226.54 40.6486C227.264 43.4756 231.642 42.2776 230.916 39.4426C229.659 34.5376 225.444 30.3356 220.398 29.4366C215.019 28.4786 209.633 30.7936 206.53 35.2656C205.831 36.2726 206.344 37.7856 207.344 38.3696C208.473 39.0286 209.749 38.5646 210.449 37.5556Z" fill="#99E7FF"/>
<path d="M75.3621 375.8C76.2181 375.783 77.0741 375.789 77.9101 375.856C78.7181 375.966 79.5061 376.133 80.2611 376.446C81.7681 377.061 83.1111 378.137 84.0571 379.901C85.2521 382.124 85.5031 385.001 85.6551 387.874C85.8251 390.772 85.9061 393.686 86.9731 396.232C88.3581 399.549 91.0941 401.671 94.7591 403.356C96.5581 404.178 98.5181 404.83 100.567 405.396C102.584 405.961 104.678 406.442 106.798 406.92C115.189 408.816 123.723 410.838 127.152 417.843C128.223 420.119 128.59 422.627 128.863 425.142C128.967 426.251 129.05 427.36 129.16 428.455H203.423C205.531 425.99 207.602 423.21 209.485 420.247C214.014 413.198 217.238 405.351 218.08 399.17C218.61 395.144 218.77 390.959 218.355 386.594C218.134 384.446 217.745 382.317 217.188 380.146C216.626 377.994 215.898 375.768 214.926 373.698C211.11 365.12 203.318 357.472 194.832 355.371C191.797 354.654 188.798 354.588 185.833 354.504C182.866 354.46 179.931 354.361 177.013 353.488C168.047 350.927 162.462 342.685 156.665 334.774C155.227 332.816 153.779 330.86 152.282 329.026C150.796 327.221 149.258 325.527 147.622 324.045C144.412 321.127 140.477 318.88 135.564 318.266C131.783 317.798 128.204 318.542 124.643 319.308C121.051 320.075 117.502 320.851 113.433 320.46C110.198 320.151 107.087 319.217 103.933 317.937C102.361 317.293 100.752 316.581 99.1371 315.804C97.5171 315.077 95.8901 314.286 94.2451 313.463C87.7061 310.289 80.8431 307.119 74.0071 306.209C65.3771 305.079 57.0901 307.827 52.4811 312.776C50.5591 314.747 49.1741 317.111 47.6431 319.305C46.1101 321.492 44.4791 323.569 42.1731 325.103C36.6081 328.781 29.1171 328.076 22.4951 329.194C12.6561 330.866 6.22708 344.97 14.4711 351.336C18.4561 354.415 23.5831 354.055 28.7401 353.602C33.8941 353.134 39.1321 352.602 43.0651 355.203C45.1891 356.59 46.6451 358.615 47.9061 360.812C49.1681 363.002 50.2831 365.304 51.6161 367.375C55.0131 372.367 59.8681 375.725 64.4451 376.385C68.0741 376.923 71.8321 375.954 75.3621 375.8Z" fill="#9CD3BE"/>
<path d="M90.0357 347.888C96.5337 350.384 102.73 353.673 108.719 357.331C114.711 360.985 120.557 364.97 126.415 368.908C132.249 372.882 138.031 376.926 143.708 381.107C149.359 385.318 154.971 389.587 160.351 394.127C163.091 396.34 165.683 398.719 168.345 401.019C170.903 403.43 173.546 405.755 176.003 408.268C178.862 411.018 181.54 413.938 184.252 416.826L188.144 421.312L189.117 422.434L190.041 423.595L193.737 428.239L193.894 428.455H197.358L195.806 426.322C191.429 420.69 186.788 415.27 181.841 410.146C176.856 405.066 171.732 400.116 166.319 395.507C164.992 394.324 163.634 393.178 162.259 392.054L158.149 388.662C155.356 386.47 152.596 384.232 149.746 382.118C138.43 373.532 126.703 365.585 114.822 357.832C108.845 353.995 102.68 350.348 96.1367 347.392C92.8717 345.911 89.5147 344.593 86.0707 343.561C82.6497 342.457 79.1507 341.636 75.6377 340.924C59.7077 337.889 43.4737 338.361 27.5477 339.587C25.6097 339.736 25.8407 342.539 27.7647 342.391C41.8047 341.316 55.9437 340.846 69.8077 342.784C76.7257 343.771 83.5207 345.455 90.0357 347.888Z" fill="#568691"/>
<path d="M62.7915 362.9C73.1565 357.271 84.8385 353.978 97.9655 355.675C101.69 356.107 105.457 356.875 109.214 357.848C111.056 358.327 111.832 355.614 109.947 355.117C103.206 353.356 96.3355 352.316 89.8045 352.458C83.2765 352.62 77.1175 353.916 71.3255 356.025C68.0025 357.247 64.8265 358.693 61.7435 360.377C60.2615 361.193 61.3285 363.726 62.7915 362.9Z" fill="#568691"/>
<path d="M106.972 380.934C120.243 381.716 133.441 383.863 146.324 387.887C148.177 388.449 150.003 389.068 151.815 389.735C153.628 390.4 155.466 391.065 157.26 391.809C159.015 392.542 160.139 389.945 158.353 389.192C145.432 383.973 132.078 380.773 118.643 379.126C114.778 378.674 110.917 378.297 107.085 378.099C105.254 378.018 105.106 380.826 106.972 380.934Z" fill="#568691"/>
<path d="M151.955 414.34C164.465 416.43 176.865 420.573 188.208 427.478C188.744 427.791 189.265 428.125 189.79 428.454H194.874C185.059 421.647 174.402 416.869 163.437 413.96C161.616 413.478 159.804 413.034 158.002 412.625C156.165 412.241 154.322 411.901 152.498 411.589C150.737 411.292 150.194 414.052 151.955 414.34Z" fill="#568691"/>
<path d="M65.3025 320.933C71.8145 324.923 78.2405 329.11 84.2555 333.66L86.4945 335.354L88.6815 337.138L90.8315 338.898L92.9205 340.717C95.6605 343.165 98.2265 345.68 100.681 348.222C103.488 351.137 106.163 354.067 108.788 357.022C110.053 358.452 112.169 356.567 110.884 355.125C106.298 349.985 101.575 344.801 96.1685 339.806C90.7555 334.787 84.6315 330.118 78.3165 325.81C76.4945 324.599 74.6675 323.385 72.8365 322.168C70.9885 321.004 69.1355 319.837 67.2775 318.667C65.4335 317.561 63.4885 319.838 65.3025 320.933Z" fill="#568691"/>
<path d="M128.878 345.027C135.324 357.411 142.659 369.375 150.314 381.032C152.526 384.333 154.698 387.69 156.952 390.924C158.01 392.528 160.344 390.936 159.276 389.328C151.565 377.951 143.974 366.31 137.166 354.265C135.217 350.824 133.348 347.378 131.524 343.865C130.625 342.137 127.945 343.293 128.878 345.027Z" fill="#568691"/>
<path d="M186.304 401.831C186.974 403.473 187.59 405.176 188.222 406.848C188.86 408.51 189.496 410.168 190.132 411.823C190.741 413.494 191.35 415.162 191.957 416.826L192.885 419.289L193.746 421.794C194.412 423.681 195.076 425.564 195.739 427.443C195.849 427.785 195.964 428.115 196.075 428.455H199.054C195.024 416.567 190.449 404.495 185.733 392.394C184.256 388.589 182.771 384.766 181.278 380.92C180.541 379.024 177.725 379.792 178.45 381.673C181.094 388.459 183.71 395.174 186.304 401.831Z" fill="#568691"/>
<path d="M311.035 428.457H408.702C408.761 428.364 408.81 428.266 408.871 428.173C409.981 426.543 411.386 425.087 412.956 423.736C416.115 421.047 419.904 418.757 423.795 416.634C427.667 414.493 431.381 412.309 434.429 409.77C437.477 407.229 439.714 404.21 440.455 400.169C441.67 394.025 438.561 387.582 440.251 381.37C441.64 376.481 445.543 373.305 449.877 370.415C454.29 367.591 459.227 365.15 462.816 361.532C465.14 359.31 466.916 356.554 468.052 353.551C469.183 350.544 469.678 347.294 469.474 344.164C469.114 339.042 466.861 333.964 468.223 328.819C469.024 325.679 471.077 323.218 473.446 320.899C475.836 318.603 478.525 316.431 480.903 314.16C484.431 310.78 485.644 305.236 484.722 300.404C483.792 295.578 480.703 291.483 475.385 291.192C472.82 291.052 470.448 291.824 468.182 293.075C465.923 294.335 463.735 296.03 461.651 297.889C459.547 299.725 457.454 301.613 455.256 303.138C453.054 304.659 450.749 305.818 448.265 306.268C442.869 307.201 437.957 304.514 432.632 303.859C429.34 303.438 425.899 303.914 422.607 305.11C419.311 306.3 416.16 308.205 413.521 310.678C409.427 314.7 406.458 320.046 403.294 324.889C400.198 329.809 396.804 334.135 391.669 336.247C385.261 338.965 378.242 336.732 371.642 339.304C367.402 341.021 364.29 344.187 361.787 348.062C359.281 351.938 357.53 356.645 355.748 361.305C353.943 365.951 352.366 370.761 350.149 374.9C349.048 376.977 347.794 378.895 346.331 380.599C344.9 382.328 343.242 383.83 341.274 385.035C336.171 388.165 330.125 388.303 324.844 391.065C321.136 392.986 317.917 396.036 315.486 399.687C313.091 403.364 311.406 407.585 310.586 411.738C309.745 415.878 309.812 420.063 310.28 424.051C310.463 425.543 310.731 427.007 311.035 428.457Z" fill="#9CD3BE"/>
<path d="M361.989 428.456C367.005 421.161 372.143 413.951 377.491 406.894C394.974 383.828 414.02 361.931 434.627 341.601L438.968 337.283L443.416 333.075L447.864 328.867L450.091 326.766L452.367 324.719L461.478 316.537L470.787 308.58C472.29 307.295 470.493 305.131 468.978 306.427L460.688 313.513C457.926 315.876 455.266 318.356 452.55 320.772L448.496 324.419C447.155 325.646 445.849 326.911 444.524 328.155L436.612 335.66C426.229 345.839 416.146 356.325 406.456 367.167C389.236 386.576 373.182 407.027 358.551 428.458H361.989V428.456Z" fill="#568691"/>
<path d="M425.962 317.06C424.812 320.426 423.667 323.776 422.526 327.114C421.353 330.46 420.126 333.771 418.844 337.047C417.577 340.338 416.325 343.662 414.977 346.912C413.648 350.179 412.212 353.362 410.844 356.625C409.249 360.327 407.578 363.976 405.837 367.576C405.002 369.354 407.559 370.539 408.415 368.773C411.502 362.423 414.268 355.823 417.063 349.305C418.441 346.028 419.728 342.679 421.022 339.355C422.337 336.052 423.595 332.711 424.797 329.334C425.469 327.399 426.143 325.46 426.818 323.516C427.5 321.592 428.163 319.658 428.809 317.712C429.435 315.828 426.597 315.163 425.962 317.06Z" fill="#568691"/>
<path d="M382.796 362.649C381.988 366.112 381.183 369.56 380.381 372.994C379.548 376.439 378.658 379.857 377.708 383.244C376.776 386.645 375.861 390.077 374.844 393.445C373.847 396.828 372.736 400.139 371.7 403.522C370.482 407.364 369.183 411.162 367.809 414.917C367.157 416.77 369.818 417.694 370.493 415.851C372.932 409.226 375.026 402.382 377.158 395.618C378.202 392.22 379.149 388.76 380.105 385.323C381.084 381.905 382.002 378.455 382.861 374.976C383.337 372.984 383.813 370.988 384.291 368.986C384.777 367.004 385.243 365.013 385.692 363.013C386.127 361.076 383.238 360.698 382.796 362.649Z" fill="#568691"/>
<path d="M345.094 428.455C345.296 427.162 345.5 425.87 345.685 424.571C345.959 422.541 346.235 420.507 346.51 418.467C346.796 416.446 347.063 414.419 347.309 412.384C347.549 410.413 344.636 410.325 344.391 412.31C343.932 415.837 343.475 419.348 343.02 422.846C342.761 424.722 342.481 426.591 342.188 428.454H345.094V428.455Z" fill="#568691"/>
<path d="M456.092 346.415C449.409 347.977 442.927 350.131 436.396 352.556C433.107 353.747 429.973 355.171 426.77 356.6C423.603 358.064 420.374 359.544 417.295 361.23C413.752 363.142 410.236 365.166 406.749 367.288C405.051 368.318 406.561 370.732 408.223 369.697C411.218 367.879 414.236 366.138 417.272 364.477C418.793 363.65 420.305 362.829 421.846 362.053C423.402 361.291 424.962 360.549 426.526 359.828C429.653 358.386 432.793 357.027 435.941 355.754C439.138 354.529 442.356 353.402 445.571 352.356C447.409 351.759 449.247 351.192 451.085 350.653C452.931 350.122 454.815 349.661 456.676 349.204C458.514 348.763 457.929 345.97 456.092 346.415Z" fill="#568691"/>
<path d="M415.708 388.847C409.214 391.07 402.979 393.86 396.721 396.925C393.568 398.438 390.591 400.167 387.546 401.908C384.54 403.68 381.475 405.475 378.58 407.46C375.246 409.716 371.948 412.08 368.69 414.538C367.103 415.732 368.847 417.985 370.397 416.788C373.196 414.681 376.025 412.648 378.881 410.693C380.312 409.718 381.735 408.751 383.191 407.825C384.664 406.912 386.142 406.018 387.626 405.145C390.594 403.399 393.582 401.733 396.588 400.152C399.647 398.614 402.737 397.172 405.831 395.81C407.6 395.033 409.373 394.285 411.148 393.565C412.932 392.852 414.761 392.205 416.567 391.565C418.352 390.942 417.491 388.221 415.708 388.847Z" fill="#568691"/>
<path d="M208.355 314.533C203.752 309.289 197.931 306.604 193.608 301.212C180.469 284.642 190.082 255.168 174.675 241.236C171.654 238.471 168.147 236.856 164.659 235.268C161.167 233.674 157.646 232.05 154.354 229.081C149.125 224.374 145.714 217.711 141.627 210.41C137.557 203.163 133.007 195.731 127.072 190.265C126.139 189.408 125.172 188.588 124.182 187.815C123.182 187.087 122.159 186.403 121.122 185.767C120.084 185.136 119.036 184.533 117.977 184.019C116.915 183.525 115.849 183.082 114.786 182.693C113.723 182.304 112.664 181.969 111.617 181.691C110.567 181.447 109.528 181.259 108.509 181.127C106.469 180.879 104.512 180.799 102.677 181.078C99.6964 181.497 97.0114 182.47 94.2844 183.293C91.5514 184.151 88.7864 184.769 85.6464 184.542C78.0844 183.971 70.9874 178.627 63.7174 175.403C52.9094 170.631 38.6014 178.406 43.3574 188.845C45.6484 193.897 51.0104 196.788 56.4134 199.667C61.8134 202.534 67.3384 205.429 69.7864 210.141C71.1124 212.672 71.3864 215.325 71.4484 217.955C71.4804 220.603 71.2214 223.275 71.4314 225.86C71.5794 227.442 71.7964 229.051 72.2254 230.574C72.4334 231.338 72.6804 232.088 72.9644 232.818C73.2164 233.56 73.5044 234.283 73.8274 234.981C74.1504 235.68 74.5084 236.355 74.9014 237.002C75.2744 237.656 75.6474 238.295 76.0724 238.896C76.4934 239.499 76.9484 240.07 77.4374 240.607C77.8824 241.16 78.3614 241.678 78.8754 242.16C82.1064 245.207 86.3054 247.196 89.7924 249.851C93.2294 252.474 96.2094 256.107 96.2904 261.092C96.3434 264.228 95.1684 267.179 93.9184 270.153C92.6724 273.133 91.3454 276.062 91.1324 279.447C90.1864 297.569 117.759 310.037 116.899 328.476C116.659 334.411 113.229 339.244 112.113 344.763C110.496 352.49 113.239 360.622 117.967 366.641C122.569 372.618 129.047 376.894 135.611 380.637C138.071 382.043 140.633 383.53 143.268 384.976C145.903 386.42 148.475 387.815 151.175 389.038C156.545 391.471 162.1 393.216 167.613 392.838C173.187 392.455 180.97 389.72 188.335 385.512C192.003 383.42 195.645 380.944 198.723 378.34C201.803 375.739 204.453 372.975 206.361 370.3C211.373 363.251 215.525 354.664 216.569 344.293C217.533 334.012 214.764 321.905 208.355 314.533Z" fill="#B3E2D1"/>
<path d="M61.6653 189.717C76.3293 197.65 90.6013 206.501 102.691 217.869L103.831 218.924L104.921 220.028L107.1 222.238C108.536 223.726 109.869 225.308 111.259 226.837C112.544 228.453 113.867 230.042 115.115 231.686C116.347 233.343 117.545 235.028 118.674 236.762C123.244 243.667 127.038 251.089 130.568 258.64C134.065 266.211 137.4 273.904 140.674 281.596C143.959 289.289 147.091 297.04 150.075 304.845C153.069 312.647 155.814 320.536 158.391 328.476C159.027 330.463 159.611 332.466 160.224 334.46C160.837 336.454 161.443 338.451 161.974 340.467L163.631 346.5L165.118 352.574C169.513 370.857 172.059 389.609 171.928 408.385C171.943 410.654 174.755 410.726 174.74 408.408L174.699 402.081C174.701 399.971 174.513 397.869 174.428 395.762C174.29 391.544 173.789 387.356 173.414 383.158C173.192 381.063 172.866 378.98 172.597 376.891C172.324 374.802 172.042 372.714 171.652 370.644L170.571 364.419L169.285 358.236L168.637 355.146L167.892 352.079L166.395 345.947C165.253 341.899 164.237 337.813 162.964 333.805C160.6 325.732 157.816 317.797 154.975 309.892C149.157 294.126 142.623 278.66 135.798 263.335C132.375 255.671 128.752 248.043 124.47 240.741C120.188 233.45 115.137 226.524 109.25 220.414C102.617 213.517 95.2383 207.375 87.3843 201.994C79.5463 196.581 71.3483 191.747 63.0063 187.245C60.9823 186.152 59.6553 188.632 61.6653 189.717Z" fill="#568691"/>
<path d="M84.7651 229.743C91.3431 230.996 97.8501 233.09 104.054 236.307C110.299 239.435 116.204 244.027 121.715 249.458C124.858 252.565 127.87 255.934 130.747 259.464C132.155 261.195 134.243 259.225 132.808 257.463C127.654 251.167 122.048 245.313 115.987 240.581C112.945 238.22 109.866 236.124 106.606 234.42L104.212 233.145C103.399 232.745 102.557 232.38 101.74 232.012L99.2921 230.951C98.4621 230.622 97.6071 230.323 96.7751 230.024C95.8161 229.686 94.8751 229.354 93.9231 229.049L91.0051 228.23C89.1091 227.689 87.1131 227.284 85.1771 226.906C83.3161 226.55 82.9141 229.409 84.7651 229.743Z" fill="#568691"/>
<path d="M117.117 279.533C128.708 289.378 139.539 300.454 149.039 313.034C151.689 316.647 154.365 320.339 156.783 324.187C157.989 326.067 160.281 324.345 159.06 322.432C150.273 308.736 139.837 296.608 128.554 285.849C125.341 282.77 121.993 279.804 118.636 276.941C117.011 275.558 115.485 278.147 117.117 279.533Z" fill="#568691"/>
<path d="M140.854 342.315C150.984 352.943 159.716 365.357 166.233 379.531L167.622 382.59C168.075 383.617 168.457 384.658 168.871 385.704C169.677 387.796 170.485 389.917 171.237 392.068C171.889 394.183 174.596 393.086 173.863 390.924C168.571 375.462 160.698 361.643 151.233 349.76C148.431 346.364 145.712 343.102 142.69 340.003C141.255 338.507 139.416 340.823 140.854 342.315Z" fill="#568691"/>
<path d="M110.579 196.521C114.609 204.297 118.311 212.3 121.29 220.435C124.343 228.571 126.412 236.733 128.107 244.717C129.076 249.3 129.931 253.855 130.788 258.405C131.194 260.611 134.053 260.338 133.646 258.121C132.175 250.217 130.701 242.263 128.615 234.143C126.572 226.036 123.654 217.702 120.172 209.637C118.168 205.046 116.021 200.459 113.73 196.011C112.585 193.802 109.457 194.342 110.579 196.521Z" fill="#568691"/>
<path d="M154.889 261.004C154.463 276.884 155.03 293.081 156.029 309.253L156.461 316.202C156.631 318.511 156.803 320.82 156.943 323.14C157.093 325.381 159.968 325.43 159.813 323.183C158.703 307.148 157.779 291.083 157.696 275.23C157.68 270.691 157.726 266.187 157.845 261.707C157.905 259.491 154.951 258.798 154.889 261.004Z" fill="#568691"/>
<path d="M180.628 328.64C180.086 332.709 179.545 336.772 179.004 340.831C178.497 344.888 177.871 348.995 177.401 353.035C176.224 361.196 175.201 369.286 173.882 377.352C173.234 381.952 172.363 386.548 171.639 391.094C171.252 393.291 173.967 394.064 174.422 391.838C177.207 375.974 179.409 359.779 181.618 343.6C182.247 338.994 182.876 334.385 183.506 329.769C183.804 327.501 180.926 326.39 180.628 328.64Z" fill="#568691"/>
<path d="M401.785 360.132C400.669 354.613 397.239 349.78 396.999 343.845C396.14 325.406 423.713 312.937 422.766 294.815C422.553 291.429 421.226 288.502 419.98 285.522C418.731 282.548 417.555 279.597 417.608 276.461C417.688 271.477 420.669 267.843 424.106 265.22C427.593 262.565 431.792 260.576 435.023 257.529C435.538 257.047 436.016 256.528 436.461 255.976C436.951 255.438 437.406 254.867 437.826 254.265C438.251 253.664 438.624 253.024 438.997 252.37C439.39 251.723 439.748 251.049 440.071 250.35C440.394 249.651 440.682 248.929 440.934 248.187C441.218 247.457 441.465 246.708 441.673 245.943C442.102 244.421 442.319 242.811 442.467 241.229C442.677 238.644 442.418 235.972 442.45 233.324C442.512 230.695 442.786 228.041 444.112 225.51C447.319 219.343 455.155 216.284 461.577 212.294C471.148 206.358 473.577 190.209 462.219 187.953C456.752 186.877 451.094 189.624 445.405 192.786C439.707 195.946 434.058 199.472 428.251 199.911C425.111 200.137 422.346 199.519 419.613 198.661C416.885 197.837 414.201 196.866 411.22 196.446C409.385 196.168 407.428 196.248 405.388 196.495C404.369 196.626 403.33 196.815 402.28 197.059C401.233 197.337 400.174 197.672 399.111 198.061C398.048 198.45 396.982 198.893 395.92 199.387C394.861 199.901 393.813 200.504 392.775 201.135C391.738 201.771 390.715 202.455 389.715 203.183C388.725 203.956 387.759 204.776 386.825 205.633C380.89 211.099 376.34 218.531 372.27 225.778C368.184 233.079 364.772 239.742 359.543 244.449C356.251 247.418 352.73 249.041 349.238 250.635C345.75 252.223 342.242 253.839 339.222 256.604C323.815 270.535 333.428 300.008 320.289 316.578C315.967 321.97 310.146 324.657 305.542 329.9C299.134 337.272 296.365 349.378 297.327 359.661C298.371 370.032 302.523 378.62 307.535 385.669C309.443 388.343 311.443 391.015 313.544 393.514C315.644 396.013 317.977 398.377 320.335 400.384C325.08 404.417 330.235 407.092 335.809 407.475C341.322 407.853 349.505 406.169 357.495 403.91C361.505 402.773 365.385 401.49 368.999 400.15C372.613 398.807 375.825 397.411 378.285 396.005C384.849 392.263 391.327 387.986 395.929 382.009C400.659 375.989 403.402 367.859 401.785 360.132Z" fill="#B3E2D1"/>
<path d="M450.894 202.609C436.139 210.594 421.654 219.555 409.28 231.187L408.114 232.266L406.996 233.396L404.764 235.661C403.292 237.186 401.921 238.81 400.496 240.381C399.173 242.041 397.815 243.675 396.532 245.366C395.265 247.07 394.035 248.801 392.878 250.577C388.196 257.654 384.344 265.198 380.783 272.816C377.254 280.455 373.925 288.137 370.637 295.861C367.342 303.577 364.196 311.363 361.197 319.207C358.188 327.048 355.425 334.988 352.83 342.984C352.189 344.986 351.6 347.005 350.983 349.014C350.366 351.024 349.755 353.036 349.219 355.07L347.548 361.154L346.047 367.285C341.611 385.74 339.028 404.724 339.161 423.771C339.147 426.084 341.958 426.021 341.974 423.748L342.014 417.51C342.011 415.43 342.199 413.354 342.281 411.276C342.416 407.116 342.912 402.979 343.282 398.834C343.501 396.765 343.824 394.706 344.09 392.642C344.36 390.578 344.638 388.514 345.024 386.467L346.093 380.311L347.366 374.191L348.007 371.132L348.745 368.093L350.228 362.018C351.361 358.004 352.367 353.955 353.631 349.977C355.976 341.968 358.742 334.084 361.566 326.225C367.35 310.55 373.863 295.132 380.67 279.848C384.077 272.219 387.658 264.688 391.854 257.531C396.056 250.382 400.945 243.678 406.689 237.715C413.16 230.989 420.382 224.97 428.119 219.67C435.838 214.339 443.946 209.555 452.236 205.082C454.242 203.997 452.922 201.514 450.894 202.609Z" fill="#568691"/>
<path d="M400.175 211.387C396.188 219.21 392.539 227.277 389.607 235.489C386.578 243.689 384.594 251.891 382.912 259.87C381.958 264.445 381.098 268.975 380.262 273.493C379.856 275.706 382.714 275.987 383.12 273.777C384.612 265.828 386.107 257.865 388.228 249.77C389.297 245.739 390.494 241.615 391.992 237.584L393.084 234.512C393.467 233.498 393.882 232.509 394.282 231.496L395.502 228.448L396.813 225.461L398.342 222.011L399.961 218.632C401.03 216.33 402.18 214.142 403.325 211.898C404.448 209.719 401.322 209.175 400.175 211.387Z" fill="#568691"/>
<path d="M356.065 277.074C356.493 292.761 355.975 308.773 354.987 324.795C354.766 329.401 354.373 333.952 354.096 338.55C353.941 340.793 356.815 340.751 356.966 338.507C358.084 322.347 359.078 306.113 359.162 290.075C359.175 285.471 359.153 280.929 359.02 276.372C358.959 274.167 356.005 274.855 356.065 277.074Z" fill="#568691"/>
<path d="M330.4 345.136C332.581 361.212 334.739 377.502 337.242 393.526L337.754 396.954C337.925 398.095 338.156 399.243 338.346 400.383L339.486 407.202C339.94 409.425 342.657 408.66 342.269 406.459C339.511 390.564 337.295 374.248 335.128 357.956C334.589 353.332 333.852 348.621 333.281 344.008C332.982 341.76 330.103 342.865 330.4 345.136Z" fill="#568691"/>
<path d="M428.731 242.281C421.915 243.563 415.157 245.722 408.697 249.052C402.216 252.313 396.078 257.005 390.394 262.581C387.145 265.768 384.061 269.229 381.103 272.833C379.671 274.592 381.754 276.568 383.164 274.834C388.199 268.664 393.642 262.965 399.495 258.37C405.343 253.737 411.537 250.447 417.962 248.13C421.659 246.826 425.356 245.818 429.143 245.116C430.993 244.784 430.595 241.924 428.731 242.281Z" fill="#568691"/>
<path d="M395.274 292.313C383.484 302.321 372.484 313.612 362.782 326.424C361.386 328.253 360.068 330.131 358.731 332.022C357.392 333.913 356.088 335.836 354.851 337.803C353.632 339.712 355.92 341.44 357.128 339.558C365.743 326.131 375.934 314.225 387.051 303.653C390.216 300.632 393.475 297.72 396.794 294.905C398.424 293.52 396.901 290.928 395.274 292.313Z" fill="#568691"/>
<path d="M371.219 355.372C368.581 358.08 366.179 360.915 363.733 363.851C361.3 366.787 359.091 369.855 356.819 373.016C352.525 379.369 348.478 386.164 345.201 393.425C343.218 397.568 341.623 401.874 340.046 406.29C339.314 408.448 342.019 409.552 342.672 407.434C347.799 392.355 355.499 378.872 364.74 367.233C366.025 365.566 367.457 363.944 368.825 362.352C370.227 360.761 371.568 359.202 373.054 357.684C374.492 356.192 372.655 353.873 371.219 355.372Z" fill="#568691"/>
<path d="M383.14 253.57H127.62C122.417 253.57 118.199 257.788 118.199 262.991V411.68C118.199 416.883 122.417 421.101 127.62 421.101H383.14C388.343 421.101 392.561 416.883 392.561 411.68V262.991C392.561 257.788 388.343 253.57 383.14 253.57Z" fill="#507C96"/>
<path d="M108.655 434.341H402.102C404.48 434.341 406.81 433.674 408.826 432.415L414.816 428.676H95.9414L101.931 432.415C103.948 433.673 106.278 434.341 108.655 434.341Z" fill="#507C96"/>
<path d="M287.201 419.441V423.496H223.556V419.441H95.9414V428.675H414.816V419.441H287.201Z" fill="#7DA3B5"/>
<path d="M287.2 419.441H223.555V423.495H287.2V419.441Z" fill="#507C96"/>
<path d="M377.629 262.898H133.126C129.617 262.898 126.773 265.867 126.773 269.53V404.082C126.773 407.744 129.617 410.713 133.126 410.713H377.629C381.138 410.713 383.982 407.744 383.982 404.082V269.53C383.982 265.867 381.138 262.898 377.629 262.898Z" fill="#CDD3D9"/>
<path d="M191.154 334.852C192.799 335.4 226.243 354.59 226.243 354.59L220.76 379.262L178.543 355.686L191.154 334.852Z" fill="#F4A062"/>
<path d="M374.332 132.484C374.332 132.484 405.532 130.42 407.371 169.338L375.392 172.041L374.332 132.484Z" fill="#18424C"/>
<path d="M356.743 70.5018C364.196 76.5178 371.165 83.2998 378.619 89.3158C383.171 92.9898 387.792 96.7058 393.145 99.0658C395.389 96.5808 397.888 94.9278 399.954 92.2928C401.173 90.7378 401.861 88.0658 402.086 86.1028C394.49 75.8208 386.894 65.5398 379.298 55.2578C374.45 55.8248 369.49 56.1788 365.451 58.9188C364.88 58.4578 363.958 57.9098 363.387 57.4478C361.188 58.8938 358.798 60.2028 357.189 62.2858C355.58 64.3688 355.872 68.0188 356.743 70.5018Z" fill="#E1F1FF"/>
<path d="M373.895 134.497C373.895 134.497 383.913 115.073 384.328 114.244C384.743 113.415 384.328 110.305 385.986 101.599C387.644 92.8923 389.061 80.5793 396.23 87.9793C396.23 87.9793 401.326 80.6613 405.887 86.8803C410.448 93.0993 411.866 96.2563 411.866 96.2563C411.866 96.2563 414.179 98.2813 413.143 100.354C412.107 102.427 412.728 110.304 405.68 116.938C398.632 123.571 395.311 125.227 395.311 125.227L384.18 156.596C384.18 156.596 376.108 148.946 373.895 134.497Z" fill="#F4A062"/>
<path d="M397.11 90.4375C397.63 91.4395 398.15 92.4415 398.67 93.4435C399.24 94.5425 399.817 95.6585 400.075 96.8695C400.333 98.0805 400.239 99.4195 399.544 100.444C398.85 101.469 397.467 102.069 396.312 101.624C395.68 101.381 395.191 100.877 394.724 100.388C393.801 99.4235 392.877 98.4575 391.954 97.4925C393.907 102.576 392.709 109.112 388.969 113.071C392.454 110.673 394.801 107.069 394.995 102.844C396.056 103.918 398.498 104.074 399.752 103.234C401.007 102.394 401.686 100.869 401.778 99.3625C401.87 97.8555 401.441 96.3615 400.856 94.9695C400.138 93.2605 398.272 91.8815 397.11 90.4375Z" fill="#CE814D"/>
<path d="M402.358 102.253C401.522 102.088 400.764 101.564 400.315 100.84C399.991 101.558 400.04 102.509 400.643 103.015C401.246 103.521 402.399 103.216 402.478 102.432" fill="#CE814D"/>
<path d="M390.807 84.958C383.311 77.255 375.816 69.551 368.32 61.847C369.962 61.37 371.853 62.496 373.171 63.585C380.455 69.606 387.764 76.011 390.807 84.958Z" fill="#81B0D3"/>
<path d="M413.343 98.0469C411.187 98.6409 409.067 99.3619 406.997 100.206C406.088 100.576 405.18 100.975 404.392 101.56C403.101 102.518 402.211 103.915 401.457 105.334C400.812 106.548 400.229 107.876 400.352 109.245C407.934 115.694 414.837 123.031 421.407 130.549C423.096 132.482 425.918 133.052 428.182 131.842C428.195 131.835 428.208 131.828 428.22 131.821C430.923 130.371 433.678 128.88 435.765 126.633C437.852 124.385 439.186 121.203 438.453 118.224C429.965 112.03 421.027 105.216 413.343 98.0469Z" fill="#E1F1FF"/>
<path d="M437.153 118.886C434.877 119.646 432.582 120.534 430.772 122.109C428.619 123.982 427.352 126.647 426.143 129.232C419.817 121.066 411.822 115.193 405.016 107.035C413.8 111.819 419.061 117.098 425.087 124.502C425.087 124.502 430.602 116.646 437.153 118.886Z" fill="#81B0D3"/>
<path d="M270.617 217.017L289.724 213.681L342.093 194.075L374.33 132.484C374.33 132.484 379.65 164.758 407.369 169.338L364.08 229.805L300.178 284.775L270.617 217.017Z" fill="#10116B"/>
<path d="M192.921 378.827C192.921 378.827 201.668 341.288 218.433 340.559C218.433 340.559 183.961 306.433 175.214 299.144C175.214 299.144 197.811 287.117 204.006 278.734C204.006 278.734 236.444 336.446 206.019 410.737H336.805C333.533 391.671 320.984 319.112 313.92 286.148C313.92 286.148 313.035 212.793 247.012 216.047C247.012 216.047 230.247 214.225 196.352 234.634L142.048 273.631C142.048 273.631 118.722 288.574 128.198 315.179C137.675 341.786 192.921 378.827 192.921 378.827Z" fill="#10116B"/>
<path d="M247.418 213.88C247.418 213.88 228.206 218.209 219.547 223.08L259.865 321.845L291.371 214.019C291.371 214.019 272.486 210.977 247.418 213.88Z" fill="#FFAE43"/>
<path d="M236.203 223.496C236.203 223.496 253.158 273.26 257.582 285.94C257.582 285.94 267.018 249.374 276.515 224.025L236.203 223.496Z" fill="#DEFCFF"/>
<path d="M264.197 124.441C262.384 123.574 259.286 123.281 257.349 123.814C237.562 129.262 221.919 140.624 207.75 155.73C208.506 157.225 208.853 158.207 209.939 159.482C215.284 165.758 220.828 171.931 227.293 177.046C236.141 184.047 246.641 188.946 257.69 191.23C257.864 189.062 261.941 190.606 264.002 189.911C281.608 183.969 294.443 170.281 306.83 156.47C307.253 155.998 307.21 155.262 306.736 154.839C293.632 143.137 280.161 132.077 264.197 124.441Z" fill="#10116B"/>
<path d="M236.263 157.601C239.816 144.446 258.959 144.152 268.775 146.771C273.561 148.048 281.094 152.113 281.572 157.467C282.35 166.178 279.486 168.672 274.421 169.541C268.285 170.594 262.462 166.568 256.282 165.819C253.637 165.498 250.953 165.805 248.403 166.549C246.083 167.226 243.514 169.398 241.176 169.607C236.471 170.03 235.414 160.745 236.263 157.601Z" fill="#275468"/>
<path d="M235.583 173.484C235.395 171.202 235.928 168.763 237.496 167.094C238.568 165.952 240.109 165.158 240.681 163.701C241.047 162.768 240.942 161.728 240.903 160.727C240.792 157.923 241.338 154.912 243.291 152.897C244.982 151.153 247.519 150.411 249.947 150.485C252.375 150.559 254.722 151.367 256.947 152.344C258.848 153.179 260.773 154.162 262.849 154.182C265.797 154.21 268.538 152.282 271.479 152.486C274.294 152.681 276.791 155.094 277.084 157.9C277.152 158.55 277.115 159.217 277.287 159.848C277.842 161.886 280.198 162.73 281.797 164.11C283.195 165.317 284.083 167.098 284.205 168.942C284.42 172.187 282.361 175.177 279.909 177.313C277.457 179.449 274.548 181.021 272.155 183.223C271.616 183.719 271.092 184.256 270.429 184.57C269.876 184.832 269.258 184.921 268.649 184.979C264.907 185.331 261.153 184.58 257.395 184.551C254.733 184.531 252.059 184.873 249.415 184.559C245.984 184.152 242.812 182.664 239.806 181.037C238.445 180.3 237.48 180.044 236.885 178.594C236.222 176.982 235.727 175.225 235.583 173.484Z" fill="#3E7593"/>
<path d="M276.515 224.022C273.682 227.412 270.562 230.604 266.703 232.715C261.595 235.51 255.363 236.175 249.78 234.523C244.197 232.871 238.968 228.619 236.203 223.494C238.568 220.217 240.942 216.925 242.801 213.336C244.66 209.747 245.971 205.325 246.117 201.286C245.323 200.434 244.521 199.573 243.938 198.566C243.061 197.05 242.726 195.29 242.422 193.566C242.155 192.054 242.031 190.223 241.79 188.706C241.309 189.723 240.164 190.353 239.04 190.322C237.915 190.291 236.85 189.649 236.201 188.73C235.653 187.954 235.389 187.017 235.177 186.092C234.875 184.777 234.662 183.442 234.542 182.098C234.475 181.353 234.444 180.595 234.613 179.868C234.789 179.109 235.207 178.377 235.876 177.977C236.881 177.376 238.18 177.649 239.248 178.129C240.737 178.798 242.166 180.023 242.311 181.648C242.87 180.269 242.408 179.169 241.782 177.818C240.908 175.931 240.632 173.772 241.006 171.727C241.24 170.445 241.949 169.017 243.24 168.84C243.849 168.757 244.453 168.98 245.046 169.142C247.504 169.813 250.234 169.42 252.403 168.082C254.043 167.071 255.366 165.556 257.125 164.771C259.831 163.563 263.321 164.49 265.069 166.882C265.653 167.681 266.056 168.612 266.719 169.346C267.527 170.24 268.709 170.786 269.914 170.822C270.681 170.845 271.442 170.671 272.208 170.68C272.975 170.689 273.806 170.93 274.231 171.569C274.507 171.985 274.57 172.503 274.61 173.001C274.819 175.604 274.387 178.084 273.803 180.629C274.716 178.58 277.338 177.485 279.436 178.276C279.771 178.402 280.096 178.573 280.351 178.824C280.827 179.294 281.001 179.978 281.07 180.652C281.22 182.127 281.049 183.625 280.606 185.04C280.11 186.627 279.24 188.331 277.757 189.225C276.3 190.104 274.28 190.075 272.877 189.112C272.467 191.229 271.954 193.325 271.342 195.393C270.587 197.941 269.603 200.638 267.469 202.223C267.656 206.245 268.357 210.3 269.806 214.057C271.253 217.813 273.502 221.351 276.515 224.022Z" fill="#F4A062"/>
<path d="M248.277 202.435C250.246 205.435 254.421 208.044 256.058 208.81C258.018 209.727 261.956 210.591 264.121 210.591C266.184 210.591 267.402 210.122 268.423 209.349C267.903 207.016 267.582 204.633 267.47 202.254C263.652 204.592 258.215 206.185 248.277 202.435Z" fill="#E08F58"/>
<path d="M242.528 174.669C242.353 174.497 242.617 173.848 243.448 173.141C244.262 172.439 245.7 171.742 247.412 171.705C249.124 171.668 250.59 172.303 251.434 172.969C252.295 173.64 252.586 174.276 252.419 174.456C252.072 174.848 250.094 173.496 247.452 173.577C244.809 173.61 242.891 175.045 242.528 174.669Z" fill="#275468"/>
<path d="M273.347 174.417C273.062 174.873 270.473 173.613 267.126 173.921C263.771 174.134 261.409 175.78 261.057 175.374C260.898 175.195 261.298 174.487 262.324 173.718C263.337 172.95 265.017 172.211 266.982 172.055C268.947 171.905 270.721 172.376 271.841 172.978C272.972 173.578 273.477 174.215 273.347 174.417Z" fill="#275468"/>
<path d="M249.826 178.199C248.723 178.199 247.828 179.61 247.828 181.349C247.828 183.089 248.723 184.499 249.826 184.499C250.93 184.499 251.824 183.088 251.824 181.349C251.824 179.61 250.929 178.199 249.826 178.199Z" fill="#A35B41"/>
<path d="M263.807 178.199C262.704 178.199 261.809 179.61 261.809 181.349C261.809 183.089 262.704 184.499 263.807 184.499C264.911 184.499 265.805 183.088 265.805 181.349C265.805 179.61 264.911 178.199 263.807 178.199Z" fill="#A35B41"/>
<path d="M258.883 192.076C258.875 191.844 259.906 191.555 260.069 190.137C260.154 189.509 259.905 188.717 259.411 187.798C258.911 186.893 258.247 185.707 257.801 184.446C256.869 181.901 256.666 179.418 256.805 177.674C256.94 175.919 257.35 174.894 257.593 174.927C258.13 174.984 257.832 179.163 259.56 183.804C259.979 184.979 260.483 185.965 260.972 187.064C261.445 188.14 261.723 189.42 261.355 190.453C261.028 191.442 260.318 192.041 259.756 192.201C259.185 192.37 258.877 192.184 258.883 192.076Z" fill="#A35B41"/>
<path d="M261.817 194.817C262.092 195.01 261.993 195.795 261.17 196.671C260.378 197.531 258.768 198.388 256.838 198.219C254.909 198.038 253.48 196.905 252.856 195.916C252.205 194.906 252.249 194.116 252.554 193.975C252.883 193.812 253.402 194.208 254.154 194.638C254.897 195.076 255.929 195.548 257.071 195.654C258.213 195.756 259.313 195.478 260.123 195.181C260.941 194.893 261.523 194.596 261.817 194.817Z" fill="#DEFCFF"/>
<path d="M289.622 141.002C286.69 143.609 286.218 148.1 287.513 151.645C289.007 155.733 292.217 158.712 294.203 162.515C295.05 164.138 295.51 165.929 295.185 167.757C294.846 169.661 293.981 171.42 293.189 173.166C291.461 176.98 290.385 180.667 291.2 184.871C292.018 189.094 294.629 192.849 298.225 195.175C300.684 196.766 302.962 192.839 300.515 191.256C297.963 189.605 296.285 186.931 295.642 183.983C294.909 180.621 296.121 177.629 297.492 174.614C299.123 171.031 300.487 167.365 299.407 163.399C298.344 159.493 295.545 156.567 293.398 153.255C291.729 150.681 290.063 146.672 292.83 144.211C295.018 142.266 291.799 139.066 289.622 141.002Z" fill="#FFAE43"/>
<path d="M288.081 393.953H141.419C138.524 393.953 136.156 395.745 136.156 397.935C136.156 400.125 138.524 401.917 141.419 401.917H288.081C290.976 401.917 293.344 400.125 293.344 397.935C293.344 395.745 290.976 393.953 288.081 393.953Z" fill="#F96767"/>
<path d="M371.663 402.823H140.44C137.579 402.823 135.25 400.527 135.25 397.705C135.25 394.883 137.578 392.586 140.44 392.586H371.663C374.524 392.586 376.852 394.883 376.852 397.705C376.852 400.527 374.524 402.823 371.663 402.823ZM140.44 394.401C138.593 394.401 137.091 395.883 137.091 397.704C137.091 399.525 138.594 401.007 140.44 401.007H371.663C373.51 401.007 375.011 399.526 375.011 397.704C375.011 395.883 373.509 394.401 371.663 394.401H140.44Z" fill="#FCFCFC"/>
<path d="M289.442 406.619C294.69 406.619 298.943 402.365 298.943 397.118C298.943 391.871 294.69 387.617 289.442 387.617C284.195 387.617 279.941 391.871 279.941 397.118C279.941 402.365 284.195 406.619 289.442 406.619Z" fill="#5B7FF4"/>
<path d="M364.209 273.949H347.099C343.538 273.949 340.625 276.862 340.625 280.423C340.625 283.984 343.538 286.897 347.099 286.897H364.209C367.77 286.897 370.683 283.984 370.683 280.423C370.684 276.862 367.77 273.949 364.209 273.949Z" fill="#F96767"/>
<path d="M347.838 282.125V276.627H348.503V281.534H351.059V282.125H347.838ZM352.756 276.627V282.125H352.09V276.627H352.756ZM354.316 276.627L355.948 281.255H356.012L357.645 276.627H358.343L356.324 282.125H355.637L353.618 276.627H354.316ZM359.199 282.125V276.627H362.517V277.218H359.865V279.075H362.345V279.666H359.865V281.534H362.56V282.125H359.199Z" fill="#FCFCFC"/>
</svg>
